<svg width="42" height="42" viewBox="0 0 42 42" fill="none" xmlns="http://www.w3.org/2000/svg">
<path d="M21 42C32.598 42 42 32.598 42 21C42 9.40202 32.598 0 21 0C9.40202 0 0 9.40202 0 21C0 32.598 9.40202 42 21 42Z" fill="#CAFF33"/>
<path d="M30.0062 29.6042L28.519 35.0724C17.9845 34.4293 6.92755 29.2827 6.92755 25.0613C6.92755 24.748 6.99564 24.3838 7.13099 23.8473L8.41478 19.11C9.34009 15.6524 14.8887 14.5671 22.4881 15.5318L21 21C15.7435 20.3675 11.6181 20.6915 9.24165 21.8104C12.0676 25.3468 21.1124 28.9669 30.0062 29.6042Z" fill="#1A1A1A"/>
<path d="M35.0727 16.9386C35.0727 17.2536 35.0046 17.6195 34.8676 18.1584C34.7946 18.4463 34.7028 18.7843 34.5904 19.1904L33.5855 22.89C32.6602 26.3476 27.1116 27.4329 19.5122 26.4682L21.0003 21C26.2593 21.6332 30.3854 21.3109 32.7603 20.192C29.9376 16.6548 20.8895 13.0331 11.994 12.3957L13.4813 6.92751C24.0157 7.57063 35.0727 12.7173 35.0727 16.9386Z" fill="#1A1A1A"/>
<path d="M8.415 19.11L7.13121 23.8473C7.20422 23.5577 7.29774 23.2181 7.41012 22.8096L8.415 19.11Z" fill="#1A1A1A"/>
</svg>
